<svg width="150" height="192" viewBox="0 0 150 192" fill="none" xmlns="http://www.w3.org/2000/svg">
<path d="M37.8946 4.58887C54.5046 0.45891 72.885 -0.860931 89.9249 0.539062C101.315 1.47912 112.735 4.56885 123.675 8.25879C129.265 10.1387 134.775 12.2093 140.324 14.1992C141.415 14.5895 149.235 17.2294 149.265 18.5293L149.275 18.5586V97.2686C149.274 102.328 149.005 106.509 147.475 111.459C144.895 119.789 141.255 127.779 136.675 135.188C128.925 147.758 118.834 158.779 107.704 168.419C102.104 173.269 96.2247 177.799 90.1349 182.009C88.7649 182.959 77.3754 191.927 75.9942 191.139C75.9318 191.103 67.1405 186.077 67.0548 186.029C42.7049 172.119 20.7442 150.639 6.99423 126.099C2.6444 118.339 -0.325499 109.919 0.154388 101.039C0.364382 97.2192 0.154401 93.3189 0.154388 89.499V24.8389C0.154381 22.8489 -0.41507 19.7287 0.634857 18.1387C1.62493 16.6389 3.7947 16.1793 5.35458 15.5693C10.1446 13.7093 14.9648 11.919 19.8048 10.209C25.7647 8.10902 31.7647 6.10884 37.8946 4.58887ZM118.164 27.4287C88.5643 18.0889 56.214 20.1191 26.4142 28.7891C24.3142 29.399 21.4746 30.0694 20.4747 32.2393C20.0548 33.1392 20.0548 34.1693 20.0548 35.1592C20.0948 48.889 20.0841 62.6295 20.0841 76.3594C20.084 84.4991 18.9552 93.1388 20.295 101.188C22.3551 113.548 31.7243 125.859 39.7843 135.029C45.1642 141.159 51.0849 146.789 57.0948 152.289C61.5248 156.339 68.0247 165.088 74.6944 164.519C74.8444 164.473 74.9647 79.809 74.9747 72.2891V69.3691H94.0841C94.1637 69.4654 94.1241 110.533 94.1241 113.449V137.809C94.124 139.979 92.5049 149.969 97.3243 148.359C98.4542 147.979 99.2445 146.989 99.9845 146.049C105.394 139.219 111.764 133.249 117.124 126.359C120.594 121.909 123.734 117.169 126.154 112.059C128.964 106.129 129.614 101.309 129.614 94.8389V38.9893C129.614 37.8294 129.944 36.0988 129.614 34.9688C128.364 30.699 121.914 28.6087 118.164 27.4287Z" fill="white"/>
</svg>
