<svg width="833" height="192" viewBox="0 0 833 192" fill="none" xmlns="http://www.w3.org/2000/svg">
<path d="M37.8946 4.58887C54.5046 0.458896 72.8849 -0.860933 89.9249 0.539062C101.315 1.47911 112.735 4.56884 123.675 8.25879C129.265 10.1387 134.774 12.2093 140.324 14.1992C141.415 14.5894 149.235 17.2293 149.265 18.5293L149.275 18.5586V97.2686C149.275 102.329 149.005 106.509 147.475 111.459C144.895 119.789 141.255 127.779 136.675 135.188C128.925 147.758 118.834 158.779 107.704 168.419C102.104 173.269 96.2247 177.799 90.1349 182.009C88.7649 182.959 77.3748 191.928 75.9942 191.139C75.9317 191.103 67.1311 186.071 67.0548 186.029C42.7048 172.119 20.7442 150.639 6.99423 126.099C2.64438 118.339 -0.325531 109.919 0.154388 101.039C0.364384 97.2191 0.154397 93.3189 0.154388 89.499V24.8389C0.154381 22.8489 -0.415101 19.7287 0.634857 18.1387C1.62493 16.6389 3.7947 16.1793 5.35458 15.5693C10.1446 13.7093 14.9648 11.919 19.8048 10.209C25.7647 8.10901 31.7647 6.10885 37.8946 4.58887ZM118.164 27.4287C88.5643 18.0889 56.214 20.1191 26.4142 28.7891C24.3142 29.399 21.4746 30.0694 20.4747 32.2393C20.0548 33.1392 20.0548 34.1693 20.0548 35.1592C20.0948 48.8891 20.0841 62.6295 20.0841 76.3594C20.084 84.4991 18.9551 93.1388 20.295 101.188C22.3551 113.548 31.7243 125.859 39.7843 135.029C45.1642 141.159 51.0849 146.789 57.0948 152.289C61.5248 156.339 68.0246 165.088 74.6944 164.519C74.8444 164.492 74.9647 79.8091 74.9747 72.2891V69.3691H94.0841C94.1639 69.4164 94.1241 110.531 94.1241 113.449V137.809C94.1241 139.979 92.5048 149.969 97.3243 148.359C98.4543 147.979 99.2445 146.989 99.9845 146.049C105.394 139.219 111.764 133.249 117.124 126.359C120.594 121.909 123.734 117.169 126.154 112.059C128.964 106.129 129.614 101.309 129.614 94.8389V38.9893C129.614 37.8293 129.944 36.0988 129.614 34.9688C128.364 30.699 121.914 28.6087 118.164 27.4287ZM346.015 130.974V154.442H349.466L349.43 163.729H345.979V157.278H327.081V163.746H323.631L323.612 154.442H325.763C326.076 154.105 326.431 153.617 326.828 152.979C327.238 152.34 327.642 151.516 328.039 150.504C328.449 149.48 328.803 148.233 329.105 146.764C329.418 145.294 329.629 143.56 329.737 141.561L330.297 130.974H346.015ZM416.32 130.974V154.442H419.772L419.735 163.729H416.284V157.278H397.387V163.746H393.937L393.918 154.442H396.068C396.382 154.105 396.736 153.617 397.134 152.979C397.543 152.34 397.947 151.516 398.345 150.504C398.754 149.48 399.109 148.233 399.41 146.764C399.723 145.294 399.935 143.56 400.043 141.561L400.603 130.974H416.32ZM476.03 146.247L482.073 130.974H486.084L476.78 152.889C476.515 153.503 476.22 154.099 475.895 154.677C475.569 155.243 475.172 155.749 474.702 156.194C474.233 156.64 473.649 156.996 472.95 157.261C472.264 157.526 471.409 157.658 470.385 157.658C470.096 157.658 469.752 157.64 469.355 157.604C468.958 157.579 468.699 157.55 468.578 157.514L468.687 154.731C468.819 154.756 469.078 154.78 469.463 154.804C469.848 154.816 470.132 154.821 470.313 154.821C470.999 154.821 471.541 154.683 471.939 154.406C472.336 154.129 472.655 153.78 472.896 153.358C473.149 152.925 473.377 152.485 473.582 152.039L474.291 150.429L465.308 130.974H469.21L476.03 146.247ZM217.053 130.612C218.655 130.612 220.1 130.902 221.389 131.479C222.689 132.058 223.804 132.901 224.732 134.009C225.671 135.105 226.387 136.436 226.881 138.002C227.387 139.556 227.64 141.32 227.64 143.295V144.957C227.64 146.932 227.393 148.703 226.9 150.269C226.406 151.834 225.695 153.166 224.768 154.262C223.84 155.358 222.726 156.194 221.425 156.772C220.136 157.351 218.691 157.64 217.089 157.64C215.535 157.64 214.108 157.351 212.808 156.772C211.519 156.194 210.399 155.358 209.447 154.262C208.508 153.166 207.779 151.834 207.261 150.269C206.743 148.703 206.484 146.932 206.484 144.957V143.295C206.484 141.32 206.737 139.556 207.243 138.002C207.761 136.436 208.489 135.105 209.429 134.009C210.368 132.901 211.483 132.058 212.772 131.479C214.072 130.901 215.499 130.612 217.053 130.612ZM307.591 130.612C309.193 130.612 310.638 130.901 311.927 131.479C313.227 132.058 314.341 132.901 315.269 134.009C316.208 135.105 316.925 136.436 317.419 138.002C317.925 139.556 318.178 141.32 318.178 143.295V144.957C318.178 146.932 317.93 148.703 317.437 150.269C316.943 151.834 316.232 153.166 315.305 154.262C314.378 155.358 313.264 156.194 311.963 156.772C310.674 157.351 309.229 157.64 307.627 157.64C306.073 157.64 304.646 157.351 303.345 156.772C302.056 156.194 300.936 155.358 299.984 154.262C299.045 153.166 298.317 151.834 297.799 150.269C297.281 148.703 297.022 146.932 297.022 144.957V143.295C297.022 141.32 297.275 139.556 297.78 138.002C298.298 136.436 299.027 135.105 299.967 134.009C300.906 132.901 302.02 132.058 303.309 131.479C304.609 130.901 306.037 130.612 307.591 130.612ZM436.065 130.612C437.666 130.612 439.112 130.901 440.4 131.479C441.701 132.058 442.815 132.901 443.742 134.009C444.682 135.105 445.399 136.436 445.893 138.002C446.398 139.556 446.651 141.32 446.651 143.295V144.957C446.651 146.932 446.404 148.703 445.91 150.269C445.416 151.834 444.706 153.166 443.778 154.262C442.851 155.358 441.737 156.194 440.437 156.772C439.148 157.351 437.702 157.64 436.101 157.64C434.547 157.64 433.119 157.351 431.818 156.772C430.53 156.194 429.41 155.358 428.458 154.262C427.519 153.166 426.79 151.834 426.273 150.269C425.755 148.703 425.495 146.932 425.495 144.957V143.295C425.495 141.32 425.748 139.556 426.254 138.002C426.772 136.436 427.501 135.105 428.441 134.009C429.38 132.901 430.494 132.058 431.782 131.479C433.083 130.901 434.511 130.612 436.065 130.612ZM502.449 130.612C504.437 130.612 506.117 130.986 507.49 131.732C508.863 132.479 509.929 133.515 510.688 134.84C511.458 136.153 511.935 137.677 512.115 139.411H508.647C508.478 138.183 508.165 137.128 507.707 136.249C507.249 135.358 506.599 134.671 505.756 134.189C504.913 133.708 503.81 133.467 502.449 133.467C501.281 133.467 500.252 133.69 499.36 134.136C498.481 134.581 497.74 135.213 497.138 136.032C496.548 136.851 496.102 137.833 495.801 138.978C495.5 140.122 495.35 141.392 495.35 142.789V145.445C495.35 146.734 495.482 147.944 495.747 149.076C496.024 150.208 496.439 151.202 496.993 152.058C497.547 152.913 498.252 153.587 499.108 154.081C499.963 154.563 500.974 154.804 502.143 154.804C503.624 154.804 504.804 154.568 505.684 154.099C506.563 153.629 507.225 152.954 507.671 152.075C508.129 151.196 508.454 150.142 508.647 148.914H512.115C511.935 150.576 511.458 152.063 510.688 153.376C509.917 154.689 508.827 155.731 507.418 156.502C506.009 157.261 504.25 157.64 502.143 157.64C500.601 157.64 499.197 157.351 497.933 156.772C496.68 156.194 495.603 155.375 494.699 154.315C493.796 153.244 493.097 151.961 492.604 150.468C492.122 148.962 491.881 147.288 491.881 145.445V142.825C491.881 140.983 492.122 139.315 492.604 137.821C493.097 136.316 493.802 135.027 494.717 133.955C495.644 132.883 496.759 132.058 498.06 131.479C499.36 130.901 500.824 130.612 502.449 130.612ZM580.289 130.612C581.891 130.612 583.336 130.901 584.625 131.479C585.926 132.058 587.04 132.901 587.968 134.009C588.907 135.105 589.623 136.436 590.117 138.002C590.623 139.556 590.876 141.32 590.876 143.295V144.957C590.876 146.932 590.63 148.703 590.136 150.269C589.642 151.834 588.931 153.166 588.004 154.262C587.077 155.358 585.962 156.194 584.661 156.772C583.372 157.351 581.927 157.64 580.325 157.64C578.772 157.64 577.345 157.351 576.044 156.772C574.755 156.194 573.635 155.358 572.684 154.262C571.744 153.166 571.015 151.834 570.497 150.269C569.979 148.703 569.721 146.932 569.721 144.957V143.295C569.721 141.32 569.974 139.556 570.48 138.002C570.997 136.436 571.726 135.105 572.665 134.009C573.605 132.901 574.719 132.058 576.008 131.479C577.309 130.902 578.736 130.612 580.289 130.612ZM638.114 130.612C640.101 130.612 641.781 130.986 643.154 131.732C644.527 132.479 645.594 133.515 646.353 134.84C647.123 136.153 647.599 137.677 647.779 139.411H644.311C644.142 138.183 643.829 137.128 643.371 136.249C642.914 135.358 642.263 134.671 641.42 134.189C640.577 133.708 639.475 133.467 638.114 133.467C636.946 133.467 635.916 133.69 635.025 134.136C634.145 134.581 633.405 135.213 632.803 136.032C632.213 136.851 631.767 137.833 631.466 138.978C631.165 140.122 631.014 141.392 631.014 142.789V145.445C631.014 146.734 631.146 147.944 631.411 149.076C631.688 150.208 632.104 151.202 632.658 152.058C633.212 152.913 633.917 153.587 634.772 154.081C635.627 154.563 636.638 154.804 637.807 154.804C639.288 154.804 640.469 154.568 641.348 154.099C642.227 153.629 642.889 152.954 643.335 152.075C643.793 151.196 644.118 150.142 644.311 148.914H647.779C647.599 150.576 647.123 152.063 646.353 153.376C645.582 154.689 644.491 155.731 643.082 156.502C641.673 157.261 639.914 157.64 637.807 157.64C636.265 157.64 634.862 157.351 633.598 156.772C632.345 156.194 631.267 155.375 630.363 154.315C629.46 153.244 628.761 151.961 628.268 150.468C627.786 148.962 627.545 147.288 627.545 145.445V142.825C627.545 140.983 627.786 139.315 628.268 137.821C628.761 136.316 629.467 135.027 630.382 133.955C631.309 132.883 632.423 132.058 633.724 131.479C635.024 130.901 636.488 130.612 638.114 130.612ZM253.49 133.828H245.035V157.278H241.603V133.828H233.165V130.974H253.49V133.828ZM275.417 142.555H278.127L287.305 130.974H291.623L281.583 143.697L292.382 157.278H288.118L278.599 145.445H275.417V157.278H271.931V130.974H275.417V142.555ZM367.366 130.974L377.43 157.278H373.853L371.347 150.396H360.346L357.846 157.278H354.286L364.314 130.974H367.366ZM537.459 133.828H529.004V157.278H525.571V133.828H517.135V130.974H537.459V133.828ZM554.024 130.974C556.011 130.974 557.691 131.317 559.064 132.004C560.437 132.69 561.479 133.642 562.19 134.858C562.9 136.063 563.255 137.442 563.255 138.995C563.255 140.681 562.9 142.121 562.19 143.313C561.479 144.506 560.437 145.415 559.064 146.041C557.691 146.655 556.011 146.963 554.024 146.963H547.809V157.278H544.321V130.974H554.024ZM602.689 151.244L615.643 130.974H619.129V157.278H615.643V136.99L602.689 157.278H599.22V130.974H602.689V151.244ZM673.124 133.828H664.669V157.278H661.236V133.828H652.799V130.974H673.124V133.828ZM688.604 130.974C689.953 130.974 691.157 131.113 692.217 131.39C693.277 131.655 694.175 132.076 694.909 132.654C695.656 133.22 696.222 133.943 696.608 134.822C696.993 135.701 697.186 136.755 697.186 137.983C697.186 139.067 696.909 140.049 696.355 140.929C695.801 141.796 695.03 142.507 694.042 143.061C693.811 143.192 693.569 143.31 693.318 143.419C694.013 143.605 694.634 143.889 695.18 144.271C696.059 144.873 696.728 145.644 697.186 146.583C697.655 147.522 697.89 148.558 697.89 149.69C697.89 151.328 697.528 152.714 696.806 153.846C696.095 154.966 695.09 155.821 693.789 156.411C692.488 156.989 690.959 157.278 689.2 157.278H679.986V130.974H688.604ZM217.053 133.575C215.969 133.575 214.988 133.787 214.108 134.208C213.241 134.63 212.495 135.249 211.868 136.068C211.254 136.887 210.778 137.899 210.441 139.104C210.103 140.308 209.935 141.693 209.935 143.259V144.957C209.935 146.535 210.103 147.932 210.441 149.148C210.778 150.353 211.26 151.371 211.886 152.202C212.524 153.021 213.277 153.641 214.145 154.062C215.024 154.484 216.005 154.695 217.089 154.695C218.221 154.695 219.227 154.484 220.107 154.062C220.986 153.641 221.726 153.021 222.328 152.202C222.942 151.371 223.407 150.353 223.72 149.148C224.033 147.932 224.19 146.535 224.19 144.957V143.259C224.19 141.693 224.026 140.308 223.701 139.104C223.388 137.899 222.925 136.887 222.311 136.068C221.696 135.249 220.943 134.63 220.052 134.208C219.173 133.787 218.173 133.575 217.053 133.575ZM307.591 133.575C306.507 133.575 305.525 133.786 304.646 134.208C303.779 134.63 303.032 135.249 302.405 136.068C301.791 136.887 301.316 137.899 300.979 139.104C300.641 140.308 300.473 141.693 300.473 143.259V144.957C300.473 146.535 300.641 147.932 300.979 149.148C301.316 150.353 301.798 151.371 302.424 152.202C303.062 153.021 303.815 153.641 304.682 154.062C305.561 154.484 306.543 154.695 307.627 154.695C308.759 154.695 309.765 154.484 310.644 154.062C311.523 153.641 312.264 153.021 312.866 152.202C313.481 151.371 313.944 150.353 314.257 149.148C314.57 147.932 314.727 146.535 314.727 144.957V143.259C314.727 141.693 314.565 140.308 314.239 139.104C313.926 137.899 313.462 136.887 312.848 136.068C312.234 135.25 311.481 134.63 310.59 134.208C309.711 133.787 308.711 133.575 307.591 133.575ZM436.065 133.575C434.981 133.575 433.998 133.786 433.119 134.208C432.252 134.63 431.505 135.249 430.879 136.068C430.265 136.887 429.789 137.899 429.452 139.104C429.115 140.308 428.946 141.693 428.946 143.259V144.957C428.946 146.535 429.115 147.932 429.452 149.148C429.789 150.353 430.271 151.371 430.898 152.202C431.536 153.021 432.288 153.641 433.155 154.062C434.035 154.484 435.017 154.695 436.101 154.695C437.233 154.695 438.238 154.484 439.117 154.062C439.997 153.641 440.738 153.021 441.34 152.202C441.954 151.371 442.417 150.353 442.731 149.148C443.044 147.932 443.2 146.535 443.2 144.957V143.259C443.2 141.693 443.038 140.308 442.713 139.104C442.4 137.899 441.936 136.887 441.321 136.068C440.707 135.25 439.955 134.629 439.064 134.208C438.184 133.786 437.185 133.575 436.065 133.575ZM580.289 133.575C579.205 133.575 578.224 133.787 577.345 134.208C576.478 134.629 575.731 135.25 575.105 136.068C574.49 136.887 574.014 137.899 573.677 139.104C573.34 140.308 573.171 141.693 573.171 143.259V144.957C573.171 146.535 573.34 147.932 573.677 149.148C574.014 150.353 574.496 151.371 575.122 152.202C575.76 153.021 576.514 153.641 577.381 154.062C578.26 154.484 579.241 154.695 580.325 154.695C581.457 154.695 582.464 154.484 583.343 154.062C584.222 153.641 584.962 153.021 585.565 152.202C586.179 151.371 586.643 150.353 586.956 149.148C587.269 147.932 587.426 146.535 587.426 144.957V143.259C587.426 141.693 587.263 140.308 586.938 139.104C586.624 137.899 586.161 136.887 585.547 136.068C584.933 135.249 584.179 134.63 583.288 134.208C582.409 133.786 581.409 133.575 580.289 133.575ZM683.473 144.976V154.442H689.2C690.308 154.442 691.248 154.25 692.019 153.864C692.801 153.479 693.397 152.937 693.807 152.238C694.216 151.528 694.421 150.69 694.421 149.727C694.421 148.751 694.247 147.908 693.898 147.197C693.548 146.487 693 145.939 692.253 145.554C691.506 145.168 690.543 144.976 689.362 144.976H683.473ZM403.943 133.828L403.548 141.561C403.476 143.15 403.325 144.62 403.096 145.969C402.867 147.306 402.584 148.529 402.247 149.637C401.91 150.745 401.524 151.738 401.091 152.617C400.752 153.296 400.394 153.904 400.018 154.442H412.852V133.828H403.943ZM333.638 133.828L333.242 141.561C333.17 143.15 333.019 144.62 332.79 145.969C332.561 147.306 332.279 148.529 331.941 149.637C331.604 150.745 331.219 151.738 330.785 152.617C330.446 153.295 330.088 153.904 329.712 154.442H342.546V133.828H333.638ZM361.383 147.541H370.308L365.84 135.268L361.383 147.541ZM547.809 144.126H554.024C555.384 144.126 556.486 143.909 557.329 143.476C558.172 143.042 558.787 142.44 559.172 141.669C559.569 140.898 559.769 140.019 559.769 139.031C559.769 138.128 559.569 137.279 559.172 136.484C558.787 135.689 558.172 135.051 557.329 134.569C556.486 134.076 555.384 133.828 554.024 133.828H547.809V144.126ZM683.473 142.175H688.712C689.712 142.175 690.585 142.006 691.332 141.669C692.079 141.332 692.657 140.85 693.066 140.224C693.488 139.585 693.698 138.826 693.698 137.947C693.698 136.984 693.512 136.201 693.139 135.599C692.777 134.984 692.217 134.539 691.458 134.262C690.711 133.973 689.76 133.828 688.604 133.828H683.473V142.175ZM606.555 124.452C606.555 125.163 606.76 125.789 607.169 126.331C607.579 126.873 608.277 127.144 609.265 127.144C610.228 127.144 610.915 126.873 611.324 126.331C611.734 125.789 611.939 125.163 611.939 124.452H614.649C614.649 125.391 614.432 126.228 613.998 126.963C613.565 127.685 612.945 128.252 612.138 128.661C611.331 129.071 610.373 129.275 609.265 129.275C607.591 129.275 606.266 128.83 605.29 127.938C604.327 127.035 603.845 125.873 603.845 124.452H606.555ZM494.855 90.2793L502.855 90.4492V115.979H490.595C490.595 112.949 490.575 109.918 490.595 106.889C490.625 102.039 487.995 101.339 483.625 101.389L473.475 101.499C465.825 101.589 458.165 101.669 450.515 101.749C447.885 101.779 442.315 100.73 440.135 102.319C437.955 103.909 438.595 107.589 438.595 109.849C438.595 111.869 438.615 113.949 438.615 115.929C434.665 116.389 430.425 115.989 426.435 115.989V93.5986C426.435 92.7788 426.175 91.4294 426.435 90.6494C426.835 89.4494 426.455 89.7694 427.995 89.6494C432.095 89.3295 435.544 89.7785 437.154 85.1992C438.964 80.0592 439.355 73.8587 440.075 68.4688C441.555 57.4089 442.255 46.259 442.785 35.1191C442.935 31.8793 443.095 28.6392 443.245 25.3994C443.305 24.2794 442.985 22.2089 443.455 21.1689H494.345L494.855 90.2793ZM254.685 35.1191H220.475L220.984 102.528H204.645V19.7988H254.685V35.1191ZM285.914 30.1787L293.324 50.2783C294.634 53.8383 295.244 57.6588 297.034 61.0488C297.834 62.5788 298.644 64.2184 300.364 63.1484C302.744 61.6784 303.905 56.9387 304.805 54.4688C308.815 43.3888 312.835 32.3689 316.475 21.1689H331.794C331.673 21.1727 331.104 22.9776 331.044 23.1084C326.604 34.6683 322.154 46.2284 317.714 57.7783C312.974 70.1183 308.924 83.5491 301.484 94.5791C298.074 99.639 293.864 102.528 287.754 102.528H276.975V89.6289C280.185 89.6289 283.404 89.7389 286.614 89.6289C293.814 89.3789 292.705 82.5687 290.345 76.2588C288.885 72.3588 286.934 68.6488 286.164 66.7988C283.624 60.6988 280.834 54.6586 278.194 48.5986C274.214 39.4587 270.234 30.3089 266.254 21.1689H282.595C283.705 24.1688 284.804 27.1788 285.914 30.1787ZM361.404 53.5088H397.834V21.1689H412.135V101.509H398.345L398.004 66.6084L361.404 66.7783L361.574 101.509H347.624V21.1689H361.404V53.5088ZM643.835 21.1885C648.405 21.1884 653.415 20.7988 658.275 20.9688L658.265 20.9385C661.655 21.0485 664.965 21.4392 668.025 22.4092C670.134 23.0792 672.165 23.9992 674.045 25.1592C678.105 27.6591 682.004 31.2689 683.994 35.6885C687.434 43.3285 685.485 54.139 682.265 61.459C681.715 62.7189 681.105 63.9689 680.255 65.0488C676.325 70.0188 669.964 72.7984 663.864 73.8984C661.426 74.3381 641.787 74.4286 641.755 74.2891V101.079H627.284V21.1885H643.835ZM606.685 101.059H592.045V21.1689H606.685V101.059ZM754.084 33.7588H716.645V55.5488H748.475L748.645 67.2891H716.135L716.305 88.9092H754.084V101.059H702.004V20.8984H754.084V33.7588ZM776.215 20.8887C785.775 20.8886 795.665 20.1086 805.194 20.9785C813.284 21.7186 821.235 24.6891 825.885 31.709C826.865 33.1989 827.465 34.9193 827.875 36.6592C828.515 40.4989 828.905 44.189 827.595 47.9688C826.105 52.2887 823.154 54.4086 819.444 56.7285C817.615 57.8784 816.475 59.7185 818.364 61.5283C819.214 62.3482 820.355 62.7686 821.425 63.2686C827.205 65.9886 831.975 71.7892 832.135 78.3291C832.285 84.2188 829.744 90.9284 825.175 94.7783C820.475 98.7383 813.725 101.089 807.685 101.059C795.435 100.999 783.185 101.059 770.935 101.059L770.955 101.049V20.8887H776.215ZM535.025 47.8887C546.884 48.2987 559.775 47.2987 570.055 54.3887C575.125 57.8886 578.974 63.4088 579.114 69.6885C579.214 74.0885 579.944 79.4289 578.494 83.6289C577.124 87.5988 574.714 91.2191 571.565 93.999C568.255 96.9189 562.785 100.759 558.305 100.989C555.535 101.129 552.724 100.989 549.954 100.989H520.055V21.1689H535.025V47.8887ZM535.015 89.5889C535.019 89.409 552.635 89.8488 554.345 89.5889C558.275 89.0086 563.345 83.5087 564.435 79.7988C565.125 77.4289 564.625 74.8486 564.625 72.4287C564.625 71.8988 564.625 71.3687 564.545 70.8389C564.255 68.8791 562.945 67.2292 561.585 65.7793C559.275 63.3094 557.254 62.2091 553.984 62.0791C547.665 61.8291 541.344 61.5889 535.025 61.3389L535.015 61.3291V89.5889ZM461.665 33.0791C460.585 33.0791 458.965 32.7693 457.925 33.0791C457.265 33.279 457.235 33.1191 457.125 33.3086L457.115 33.2988C457.065 33.3888 456.985 33.5692 456.805 33.9092C456.215 35.0194 456.595 37.6891 456.515 38.959C456.045 46.8288 455.745 54.6987 455.105 62.5586C454.535 69.6085 454.125 76.7891 451.095 83.2891C450.694 84.15 448.365 89.9072 447.145 89.3887C447.995 89.7584 449.245 89.5889 450.234 89.5889H481.745V33.0791H461.665ZM816.725 73.5586C813.915 64.5987 802.965 65.7588 795.685 65.7588H784.055V89.5781H797.565C805.265 89.5781 817.264 89.0284 817.284 78.5186C817.284 76.8486 817.225 75.1486 816.725 73.5586ZM784.045 65.7588H784.055V65.749L784.045 65.7588ZM652.715 32.6094C651.795 32.5794 641.744 32.6693 641.744 32.7393V62.1787C645.704 62.1787 649.664 61.9987 653.624 62.1787C656.174 62.2987 658.854 62.239 661.284 61.3691C666.384 59.5391 670.415 55.0585 670.715 49.5186C671.045 43.4288 669.564 37.7794 663.775 34.8594C660.385 33.1495 656.465 32.7294 652.715 32.6094ZM804.795 32.5791C802.425 32.3691 799.904 32.5986 797.525 32.5986H784.045V54.8584C784.085 54.7295 798.767 54.9486 799.875 55.0186C803.995 55.2685 808.725 55.5984 811.795 52.2686C815.595 48.1486 816.715 40.8787 812.625 36.5088C810.655 34.409 807.675 32.8393 804.795 32.5791ZM520.055 21.1689H520.045L520.055 21.1592V21.1689Z" fill="white"/>
</svg>
